<?xml version="1.0" encoding="utf-8"?>
<!-- Generator: Adobe Illustrator 17.1.0, SVG Export Plug-In . SVG Version: 6.00 Build 0)  -->
<!DOCTYPE svg PUBLIC "-//W3C//DTD SVG 1.1//EN" "http://www.w3.org/Graphics/SVG/1.1/DTD/svg11.dtd">
<svg version="1.1" id="Layer_1" xmlns="http://www.w3.org/2000/svg" xmlns:xlink="http://www.w3.org/1999/xlink" x="0px" y="0px"
	 viewBox="0 0 372 201.8" enable-background="new 0 0 372 201.8" xml:space="preserve">
<g>
	<path fill="#FFCE4B" d="M195.3,186.3l5-50.2l0,0c0.5-1.4,1.3-1.9,2.8-2.8c1.3-0.9,3.2-3.1,3.5-5c1.5-8.1,2.8-13,4-18.7
		c0.7-3.4,1-6.9-3-9.2c-2.6-1.5-5.5-2.5-8.4-3.8c-1.1-0.5-3-1.1-3.8-1.9c-1.3-1.3-1.9-2.7-0.9-4.5c1.8-3.3,2-7,1.8-10.7
		c-0.3-3.4-2.7-5.2-6.2-5.2c-3.6,0-5.9,1.8-6.2,5.2c-0.3,3.7-0.1,7.4,1.8,10.7c1.1,1.9,0.4,3.3-0.9,4.5c-0.8,0.8-2.7,1.4-3.8,1.9
		c-2.8,1.3-5.8,2.3-8.4,3.8c-3.9,2.2-3.7,5.8-3,9.1c1.2,5.6,2.5,10.5,4,18.7c0.3,1.9,2.2,4.2,3.5,5.1c1.5,0.9,2.3,1.4,2.8,2.8h0.1
		l5,50.3h-15.7v4.1h41.8v-4.1H195.3z"/>
	<rect x="166.9" y="191.4" fill="#FFCE4B" width="46.1" height="10.4"/>
</g>
<polygon opacity="0.12" fill="#FFCE4B" points="212,201.8 167,201.8 90,0 292,0 "/>
<polygon opacity="0.12" fill="#FFCE4B" points="212,201.8 167,201.8 0,0 372,0 "/>
</svg>
